#!OML:ASF H:\GeneralSubjects\Female5\Project 1\Capture day 1\Session 1\Female5.ASF
:FULLY-SPECIFIED
:DEGREES
63
root -22.7155 15.8355 0.383792 148.749 -88.041 -140.131
lowerback 10.1761 1.18915 4.85322
upperback -10.3094 2.09408 -1.15766
thorax -17.272 0.137256 -4.53842
lowerneck -16.6285 -0.44699 -0.225904
upperneck 35.8311 -0.779805 -2.55839
head 15.335 -1.15281 -1.2975
rclavicle 2.11457e-014 -1.09332e-014
rhumerus -56.8896 8.8534 -82.5423
rradius 31.7414
rwrist -10.0379
rhand -24.4904 -22.5037
rfingers 7.12502
rthumb 2.00379 -52.4741
lclavicle 2.11457e-014 -1.09332e-014
lhumerus -45.4409 -7.88491 76.0783
lradius 37.9996
lwrist -0.56565
lhand -26.5024 28.5134
lfingers 7.12502
lthumb 0.0605031 58.4931
rfemur -21.2321 4.88054 29.2393
rtibia 11.1043
rfoot -2.58529 -12.7366
rtoes -12.2144
lfemur 4.40912 -4.78314 -29.8197
ltibia 34.7689
lfoot -10.8117 -5.09063
ltoes -22.8118
64
root -22.4173 15.7971 0.43905 163.284 -88.211 -154.589
lowerback 10.1043 1.14994 4.32565
upperback -10.3117 1.91197 -1.32379
thorax -17.252 0.104658 -4.38584
lowerneck -16.5744 -0.416626 -0.163999
upperneck 35.6815 -0.846657 -2.29708
head 15.2492 -1.13114 -1.20409
rclavicle -1.16786e-015 4.77083e-015
rhumerus -56.8392 8.3935 -82.2269
rradius 31.7952
rwrist -10.521
rhand -24.5691 -22.6209
rfingers 7.12502
rthumb 1.92776 -52.5919
lclavicle -1.16786e-015 4.77083e-015
lhumerus -45.0581 -8.31207 76.1926
lradius 38.4707
lwrist -0.404497
lhand -26.7175 28.6087
lfingers 7.12502
lthumb -0.147277 58.5884
rfemur -22.6469 4.92024 28.3444
rtibia 11.0255
rfoot -1.15886 -13.2065
rtoes -10.9684
lfemur 6.91944 -7.06632 -31.619
ltibia 29.4808
lfoot -11.8733 -6.05538
ltoes -20.5352
65
root -22.0988 15.7615 0.493378 179.755 -88.2924 -170.887
lowerback 10.1018 1.10872 3.66568
upperback -10.3099 1.70746 -1.48591
thorax -17.2763 0.0770832 -4.15114
lowerneck -16.5328 -0.415832 -0.0528248
upperneck 35.4494 -0.975546 -2.01231
head 15.1264 -1.12271 -1.11841
rclavicle -1.31695e-015 -1.39149e-014
rhumerus -56.6824 8.04069 -82.0117
rradius 31.9253
rwrist -11.1983
rhand -24.5895 -22.7537
rfingers 7.12502
rthumb 1.90807 -52.7249
lclavicle -1.31695e-015 -1.39149e-014
lhumerus -44.5952 -8.75934 76.3375
lradius 38.8081
lwrist -0.352134
lhand -27.1016 28.6414
lfingers 7.12502
lthumb -0.51817 58.6205
rfemur -24.1005 5.27372 27.3163
rtibia 10.6444
rfoot 0.31617 -14.1303
rtoes -9.85982
lfemur 8.66841 -9.32683 -33.4142
ltibia 25.0328
lfoot -12.7127 -7.78908
ltoes -17.9593
66
root -21.7587 15.7301 0.547222 194.885 -88.2809 -185.773
lowerback 10.2122 1.06268 2.9426
upperback -10.2901 1.49304 -1.62521
thorax -17.3537 0.0542211 -3.85566
lowerneck -16.5454 -0.440331 0.0989437
upperneck 35.153 -1.15779 -1.69803
head 14.9865 -1.12468 -1.03625
rclavicle 1.05356e-014 -2.5842e-015
rhumerus -56.3955 7.81404 -81.9084
rradius 32.1079
rwrist -12.0419
rhand -24.6165 -22.8645
rfingers 7.12502
rthumb 1.88199 -52.836
lclavicle 1.05356e-014 -2.5842e-015
lhumerus -44.0215 -9.15879 76.4763
lradius 38.9566
lwrist -0.42456
lhand -27.6053 28.6124
lfingers 7.12502
lthumb -1.00467 58.5897
rfemur -25.5183 6.07302 26.1535
rtibia 9.87111
rfoot 1.78771 -15.6758
rtoes -8.74629
lfemur 9.58845 -11.3383 -34.9619
ltibia 21.6748
lfoot -13.2281 -10.1378
ltoes -15.7138
67
root -21.3976 15.7044 0.600423 205.907 -88.2223 -196.503
lowerback 10.4682 1.01721 2.21998
upperback -10.246 1.28904 -1.72502
thorax -17.4952 0.0397232 -3.52137
lowerneck -16.6215 -0.484061 0.310011
upperneck 34.7928 -1.37949 -1.38218
head 14.8325 -1.1332 -0.970548
rclavicle -1.3418e-015 -3.97569e-016
rhumerus -55.9754 7.71089 -81.9094
rradius 32.3227
rwrist -12.97
rhand -24.6921 -22.8869
rfingers 7.12502
rthumb 1.80893 -52.859
lclavicle -1.3418e-015 -3.97569e-016
lhumerus -43.3666 -9.4285 76.559
lradius 38.9559
lwrist -0.611838
lhand -28.1156 28.5568
lfingers 7.12502
lthumb -1.49758 58.5313
rfemur -26.8164 7.54357 24.8004
rtibia 8.58424
rfoot 3.07156 -18.1505
rtoes -7.22971
lfemur 9.69615 -12.962 -36.065
ltibia 19.359
lfoot -13.4032 -12.6369
ltoes -14.0668
68
root -21.0182 15.6862 0.653036 211.952 -88.166 -202.223
lowerback 10.8774 0.982953 1.5441
upperback -10.1771 1.11718 -1.77733
thorax -17.7029 0.0391979 -3.17006
lowerneck -16.7856 -0.539903 0.562735
upperneck 34.4019 -1.62389 -1.07106
head 14.6864 -1.14556 -0.919212
rclavicle 9.44227e-016 -7.95139e-015
rhumerus -55.4435 7.73736 -82.0121
rradius 32.5756
rwrist -13.9088
rhand -24.8092 -22.811
rfingers 7.12502
rthumb 1.69584 -52.784
lclavicle 9.44227e-016 -7.95139e-015
lhumerus -42.6622 -9.54016 76.5623
lradius 38.8079
lwrist -0.881431
lhand -28.5222 28.5368
lfingers 7.12502
lthumb -1.89025 58.5082
rfemur -27.9693 9.92443 23.1207
rtibia 6.74738
rfoot 3.53936 -21.9056
rtoes -3.99073
lfemur 9.08179 -14.125 -36.6339
ltibia 17.9182
lfoot -13.217 -14.9388
ltoes -12.8736
69
root -20.6251 15.6767 0.705322 213.756 -88.1146 -203.674
lowerback 11.408 0.974518 0.911677
upperback -10.0898 0.992613 -1.78736
thorax -17.9642 0.0599696 -2.80845
lowerneck -17.0444 -0.600539 0.82742
upperneck 34.015 -1.87592 -0.759833
head 14.566 -1.15958 -0.873404
rclavicle 6.55989e-015 -2.78299e-015
rhumerus -54.8437 7.90339 -82.2069
rradius 32.8936
rwrist -14.7802
rhand -24.9472 -22.6509
rfingers 7.12502
rthumb 1.56259 -52.6249
lclavicle 6.55989e-015 -2.78299e-015
lhumerus -41.9594 -9.50328 76.4801
lradius 38.5224
lwrist -1.25713
lhand -28.7418 28.5578
lfingers 7.12502
lthumb -2.10231 58.5272
rfemur -29.0734 13.4364 20.8602
rtibia 4.4788
rfoot 1.76007 -27.1293
rtoes 2.38142
lfemur 7.88561 -14.866 -36.7248
ltibia 17.1154
lfoot -12.8232 -16.951
ltoes -12.3096
